<?xml version="1.0" encoding="utf-8"?>
<!-- Generator: Adobe Illustrator 26.1.0, SVG Export Plug-In . SVG Version: 6.00 Build 0)  -->
<svg version="1.1" id="レイヤー_1" xmlns="http://www.w3.org/2000/svg" xmlns:xlink="http://www.w3.org/1999/xlink" x="0px"
	 y="0px" viewBox="0 0 587.2 168.3" style="enable-background:new 0 0 587.2 168.3;" xml:space="preserve">
<style type="text/css">
	.st0{fill:#FFFFFF;}
</style>
<path class="st0" d="M37.8,124c1.5,0,2,0.5,2,1c0,0.3-0.2,0.6-0.3,1l-13.7,26.2L12.6,126c-0.2-0.2-0.3-0.6-0.3-0.9
	c0-0.6,0.5-1.1,1.9-1.1v-1H0.5v1c1.9,0,2.3,0.8,2.3,1.9v37.2c0,1.1-0.4,1.9-2.1,1.9v1h9.6v-1c-1.5,0-1.9-0.8-1.9-1.9v-32.3l0.1-0.2
	l17.3,34.6L43,130.7l0.2,0.2v32.3c0,1.1-0.4,1.9-2.3,1.9v1h11.3v-1c-1.9,0-2.3-0.8-2.3-1.9V126c0-1.1,0.4-1.9,2.3-1.9v-1H37.8V124z"
	/>
<path class="st0" d="M90.5,124c1.2,0,1.8,0.4,1.8,1c0,0.5-0.7,1.2-1.1,1.8l-11.8,15.9l-11.2-15.4c-0.6-0.9-1.4-1.5-1.4-2.1
	s0.7-1.1,2-1.1v-1H56.6v1c1.3,0,2,0.8,3.5,2.8l15.6,21.5v14.9c0,1.1-0.4,1.9-1.9,1.9v1h10.7v-1c-1.5,0-1.9-0.8-1.9-1.9v-14.9
	l16-21.5c1.4-1.9,2.1-2.8,3.6-2.8v-1H90.5V124z"/>
<path class="st0" d="M157,142h-1v9.6h1c0-1.3,0.8-1.8,2.8-1.8h9.3v6.2c-3.6,2.8-9.6,4.9-16.5,4.9c-8.6,0-16.7-5.8-16.7-16.5
	c0-8.7,5.3-16.4,17.5-16.4c9.1,0,16,4.6,16,6.5c0,0.3-0.1,0.7-0.3,1l1,0.6l5.7-8.4l-1-0.6c-0.3,0.5-0.6,1-1.5,1
	c-1.9,0-6.1-5.5-20-5.5c-13.8,0-24,9.8-24,22.5c0,12.6,10.5,21.5,24.8,21.5c6.8,0,15.4-2.3,23.2-8.5v-1c-1.1-0.2-1.5-0.5-1.5-2.3
	v-7.1c0-1.8,0.3-2.2,1.5-2.2v-1h-17.4C157.9,144.4,157,143.7,157,142"/>
<path class="st0" d="M206.5,122.6c-14,0-24.4,7.9-24.4,21.9c0,14.2,10.4,22,24.4,22s24.4-7.9,24.4-22S220.5,122.6,206.5,122.6
	 M206.5,161c-10.9,0-17.3-6.2-17.3-16.4s6.4-16.4,17.3-16.4c10.9,0,17.3,6.2,17.3,16.4S217.4,161,206.5,161"/>
<path class="st0" d="M272.1,160.6h-27.2v-34.3c0-1.5,0.4-2.3,1.9-2.3v-1h-10.7v1c1.5,0,1.9,0.8,1.9,1.9v37.2c0,1.1-0.4,1.9-1.9,1.9
	v1h36c2,0,2.8,0.5,2.8,1.8h1v-9.6h-1C274.9,159.9,273.9,160.6,272.1,160.6"/>
<path class="st0" d="M316,123.1h-34.8v1c1.5,0,1.9,0.8,1.9,1.9v37.2c0,1.1-0.4,1.9-1.9,1.9v1h10.7v-1c-1.5,0-1.9-0.8-1.9-1.9v-16.7
	h17.3c2.4,0,3.2,0.9,3.2,2.3h1v-9.3h-1c0,1.2-0.5,1.6-3.2,1.6H290v-12.6h26.2c2.4,0,3.2,1,3.2,2.3h1v-9.3h-1
	C319.3,122.7,318.8,123.1,316,123.1"/>
<path class="st0" d="M385.5,163l-10.2-16c8-1.1,11.4-5.3,11.4-12.1c0-7.8-4.3-11.9-15-11.9h-27.1v1c1.5,0,1.9,0.8,1.9,1.9v37.2
	c0,1.1-0.4,1.9-1.9,1.9v1h10.7v-1c-1.5,0-1.9-0.8-1.9-1.9v-15.7h14.9l10,16c0.2,0.2,0.4,0.6,0.4,0.9c0,0.5-0.2,0.7-1.6,0.7v1h11.7
	v-1C387.1,165.1,386.6,164.7,385.5,163 M353.4,141.8v-13.3h17.3c7.5,0,9.4,2,9.4,6.2c0,4.4-2.4,7-9,7h-17.7V141.8z"/>
<path class="st0" d="M436,161l-15.6-32.6c-0.9-1.9-1.5-2.8-1.5-3.4s0.3-1,1.3-1v-1h-11.8v1c0.8,0,1.5,0.5,1.5,1
	c0,0.6-0.5,1.3-1.3,3.2l-14.7,33c-1.6,3.6-1.9,3.9-3.3,3.9v1h10v-1c-1,0-1.4-0.3-1.4-0.9c0-0.6,0.7-2,1.1-3.1l2.8-6.5H426l3.1,6.5
	c1,2,1.1,2.3,1.1,2.8c0,0.7-0.3,1.1-1.6,1.1v1h11.3v-1C437.9,165.1,437.9,164.9,436,161 M405.7,149.2l8.4-19.3l9.2,19.3H405.7z"/>
<path class="st0" d="M478.3,124c1.5,0,1.9,0.8,1.9,1.9v29.3H480L454.6,126c-0.3-0.3-0.6-0.7-0.6-1.1c0-0.6,0.3-0.9,1.5-0.9v-1h-13.7
	v1c1.5,0,1.9,0.8,1.9,1.9v37.2c0,1.1-0.4,1.9-1.9,1.9v1h9.7v-1c-1.5,0-1.9-0.8-1.9-1.9v-33.4l28.8,33.1c0.2,0.3,0.8,0.8,0.8,1.5
	c0,0.5-0.6,0.6-1.6,0.6v1H488v-1c-1.5,0-1.9-0.8-1.9-1.9v-37c0-1.1,0.4-1.9,1.9-1.9v-1h-9.7V124z"/>
<path class="st0" d="M521.5,142h-1v9.6h1c0-1.3,0.8-1.8,2.8-1.8h9.3v6.2c-3.6,2.8-9.6,4.9-16.5,4.9c-8.6,0-16.7-5.8-16.7-16.5
	c0-8.7,5.3-16.4,17.5-16.4c9.1,0,16,4.6,16,6.5c0,0.3-0.1,0.7-0.3,1l1,0.6l5.7-8.4l-1-0.6c-0.3,0.5-0.6,1-1.5,1
	c-1.9,0-6.1-5.5-20-5.5c-13.8,0-24,9.8-24,22.5c0,12.6,10.5,21.5,24.8,21.5c6.8,0,15.4-2.3,23.2-8.5v-1c-1.1-0.2-1.5-0.5-1.5-2.3
	v-7.1c0-1.8,0.3-2.2,1.5-2.2v-1h-17.4C522.4,144.4,521.5,143.7,521.5,142"/>
<path class="st0" d="M585.7,157.9c0,2-1.1,2.8-3.3,2.8h-27.1v-13.8h16.6c2.3,0,3.2,0.6,3.2,2.2h1v-9.9h-1c0,1.7-1.4,2.3-3.3,2.3
	h-16.4v-13h25.3c2.4,0,3.2,1,3.2,2.3h1v-9.3h-1c0,1.2-0.5,1.6-3.2,1.6h-33.9v1c1.5,0,1.9,0.8,1.9,1.9v37.2c0,1.1-0.4,1.9-1.9,1.9v1
	h36.3c2,0,2.8,0.5,2.8,1.8h1v-10H585.7z"/>
<rect x="225.4" y="99.3" class="st0" width="138.8" height="8"/>
<path class="st0" d="M303.8,35.7c0,0.1-0.1,0.1-0.1,0.2C303.7,35.9,304,35.2,303.8,35.7"/>
<path class="st0" d="M320,89.4c0-2.4-1.9-4.3-4.3-4.3s-4.3,1.9-4.3,4.3s1.9,4.3,4.3,4.3C318.1,93.6,320,91.7,320,89.4"/>
<path class="st0" d="M226.9,57.9c1.1,2.6,2.7,3.2,2.7,3.2c6.2,3.5-0.2,10-0.2,10c-0.5,0.8,0.1,0.9,0.1,0.9c2.8,0.6,5.4-1.5,5.4-1.5
	l0.3,0.9c0.4,6.4-0.2,11.4-0.2,11.4c0,1.6,0.9,2,0.9,2c3.2,2.3,3.1,5.3,3.1,5.3c0,2.4,1.5,3.1,1.5,3.1c1.6,0.3,2.6,0,2.6,0
	c1.5-0.4,2.7-0.1,2.7-0.1c1.5,0.1,1.1-1.1,1.1-1.1c-2.9-4.5-5-6-5-6c-1.6-0.7-1.9-3.9-1.9-3.9c-0.3-10.8,1.3-13.3,1.3-13.3
	c0.6-1,0.2,1.3,0.2,1.3c-0.7,2.4,0,3.1,0,3.1c2.2,3.4,4.1,5.6,4.1,5.6c2.6,3.5,3.3,5.8,3.5,6.8c0.5,2.2,1.6,2.6,1.6,2.6
	c2,0.8,2.4,1.7,2.4,1.7c1.8,2.2,2,2.2,2,2.2c0.5,1.3,1.9,1.3,1.9,1.3c3.6-0.1,7.2-0.4,7.2-0.4c0.5,0,0.6-0.6,0.5-0.8
	c-2.5-3-3.9-2.8-3.9-2.8c-0.8-0.7-2.2-1.4-2.2-1.4c-2.4-1.1-3.4-2.7-3.4-2.7c-5.9-8.8-6.1-11.3-6.1-11.3c-0.6-3.7,1-6,1-6
	c2-3.8,3.8-9.2,3.8-9.2c1.3-4.2,2.6-8,2.6-8c0.3-1.5,2.4,0.3,2.4,0.3c11.3,9.9,16.2,7.7,16.2,7.7c5.7-0.5,12.5-4.3,12.5-4.3
	c1.1-0.1,0.5,0.2,0.5,0.2c0.3,2.3,0.9,2.9,0.9,2.9c0.7,0.8,1,3.9,1,3.9c0.9,6.9,1.4,7.9,1.4,7.9c1,2,1.4,4.4,1.6,6.4L280.8,88h-0.1
	l1-1.1c-0.9,1-1.8,0.6-1.8,0.6l0.2,0.3c-5.1-1.9-8.7-3.1-10.5-3.1c-0.3,0-1.3,0.3-1.8,0.7c-0.6,0.5-0.6,1.3-0.6,1.6
	c0,1.9,2.1,4.8,5.1,5.8c2,0.7,5.5,1.1,7.4-1l0,0l13.2-13.2c0,1.3-0.1,2.1-0.1,2.1c-0.1,2.3,0.9,2.9,0.9,2.9c1.9,1.6,1.4,4.6,1.4,4.6
	c0.1,3.5,1.9,4.9,1.9,4.9c1.5,0.2,4.4-0.3,4.4-0.3c0.9-0.3,1-0.9,1-0.9c0.3-0.5-0.2-2-0.2-2c-1.5-3-2.9-4.4-2.9-4.4
	c-2.2-2-2-3.1-2-3.1c-0.1-1.5-0.2-2.2-0.2-2.2c-0.4-2.5-0.6-4.1-0.7-5l10.5-10.4c-0.5,6.2-2.4,6.6-2.4,6.6c-4,0.5-3.6,2-3.6,2
	c0.1,4.5,1.4,4.6,1.4,4.6c0.9,0.8,1.4-0.2,1.4-0.2c2.4-2.1,3.2-3.9,3.2-3.9c1-1.6,1.7-2,1.7-2c1.1-1.2,1.5-7.3,1.5-7.3
	c0.2-1.5,0.4-2.7,0.6-3.6l5.1-5.1l36,36l0,0c1.9,2.1,5.4,1.7,7.4,1c3.1-1.1,5.2-3.9,5.1-5.8c0-0.3,0-1.1-0.6-1.6
	c-0.5-0.4-1.5-0.7-1.8-0.7c-1.8,0-5.5,1.2-10.5,3.1l0.2-0.3c0,0-0.9,0.4-1.8-0.6l1,1.1h-0.1L317,54.4l23.8-23.8l0.2,0.2l17.6-17.6
	l-1.8-1.8L339.2,29l0.2,0.2L315.6,53L302,39.4c1.1-2.4,1.6-3.4,1.7-3.8c1.4-3.5,1.5-5.9,1.5-5.9c-0.1-3.8,0-8.7,0-8.7
	c0.1-2.7,2.1-1.6,2.2-1.5c3.9,1.7,5.8,2.2,5.8,2.2c3.7,1.6,4.3,2.9,4.3,2.9c1.4,2.2,2,2.4,2,2.4c1.7,0.9,1.4-0.3,1.4-0.5
	c-0.1-0.8,0.3-0.5,0.3-0.5c0.4,0.1,0.5,0.5,0.5,0.5c0.4,0.4,0.9-0.5,0.9-0.5c1.8-3.9-0.5-6.8-0.5-6.8c-2.3-2.5-3.2-3.6-3.2-3.6
	c-1.9-1.8-2.8-3.5-2.9-3.6c-0.7-0.7-0.3-1.5-0.3-1.5c0.6-3.9-1.5-4.9-1.5-4.9c-0.6-0.3-1.4-0.5-1.4-0.5c-1.5-0.5-1-0.9-1-0.9
	c0.3-1.6,0.3-3.2,0.3-3.2c-0.1-0.3-0.3-0.3-0.3-0.3c-2.2-0.5-3.2,4.1-3.2,4.1c-2.6-0.7-4.8-0.3-6.5,0.3c0.1-0.3,0.4-0.7-0.9,0
	c-1.9,1-2.7,1-2.7,1l-0.4,0.6c-1.8,0.2-2.3,1-2.3,1c-1.9,2.4-2.7,1.9-2.7,1.9c-1.3,0.6-2,1.2-2,1.2c-0.2,0.7,0.7,0.9,0.7,0.9
	c-1.1,0.4-1,0.6-1,0.6c-1.1,0.1-1.1,0.4-1.1,0.4c-1.2,0.8-1.3,0.8-1.4,0.7l0.4,0.8c-0.1,0.4-0.2,0.4-0.2,0.4
	c-1.2,0.5-1.9,1.1-1.9,1.1c0.1,0.7,0.6,0.8,0.6,0.8c-1.7,1.5-2.3,1.9-2.3,1.9c-0.2,0.8,0.6,1,0.6,1c-0.6,1-2.4,0.6-2.4,0.6
	c-0.1-0.1-0.2,0-0.3,0l-8.2-8.2l-1.8,1.8l8.9,8.9c-1.2,0.1-2.5,0.6-2.5,0.6c-0.5,0.7,0.7,0.9-0.3,2.5c-1,1.7-7.5,4.8-7.5,4.8
	c-5.3,1.1-8.5,0.6-11.1,0.6s-4.4-0.2-4.4-0.2c-6.4-2.2-14.5,3.4-14.5,3.4c-0.6,0.5-1.5,0.3-1.5,0.3c-6.4-0.7-9.1,1.7-9.1,1.7
	c-2.5,1.6-4.1,3.9-4.1,3.9l-1.5,2.9c-3.2,8.9,0.3,12.3,0.3,12.3C226.7,56.6,226.9,57.9,226.9,57.9 M300.6,44.1
	c0.4-0.7,0.7-1.6,0.9-2.4l12.8,12.8l-3,3c0.3-4-1.2-4.5-1.2-4.5c-2.2-2-7.7-6.3-7.7-6.3C299.6,45,300.6,44.1,300.6,44.1 M294.7,53.8
	c0.2-1.1,1.2-0.9,1.2-0.9c12.5,2,10.9,5.8,10.9,5.8c0.1,1.1,0.1,2.2,0.1,3.1l-10.8,10.8c-0.2-3.5,0-5.9,0-5.9
	c-0.3-2.9-0.5-3.5-0.5-3.6C294.3,56,294.7,53.8,294.7,53.8 M236.2,38c0,0,0.7-0.3,0.9,0c0,0-0.1,0.3-0.2,0.9c0,0-1.8,4.7-0.6,10.7
	c0,0-4.5-0.3-4.8-3.8C231.4,45.8,231.2,39.5,236.2,38"/>
</svg>
